<?xml version="1.0" standalone="no"?><svg xmlns="http://www.w3.org/2000/svg" viewBox="0 0 1440 320"><path fill="#ffd700" fill-opacity="1" d="M0,96L26.7,90.7C53.3,85,107,75,160,85.3C213.3,96,267,128,320,122.7C373.3,117,427,75,480,80C533.3,85,587,139,640,154.7C693.3,171,747,149,800,144C853.3,139,907,149,960,138.7C1013.3,128,1067,96,1120,106.7C1173.3,117,1227,171,1280,165.3C1333.3,160,1387,96,1413,64L1440,32L1440,320L1413.3,320C1386.7,320,1333,320,1280,320C1226.7,320,1173,320,1120,320C1066.7,320,1013,320,960,320C906.7,320,853,320,800,320C746.7,320,693,320,640,320C586.7,320,533,320,480,320C426.7,320,373,320,320,320C266.7,320,213,320,160,320C106.7,320,53,320,27,320L0,320Z"></path></svg>