<?xml version="1.0" standalone="no"?><svg xmlns="http://www.w3.org/2000/svg" viewBox="0 0 1440 320"><path fill="#eef0f2" fill-opacity="1" d="M0,96L12.6,117.3C25.3,139,51,181,76,192C101.1,203,126,181,152,170.7C176.8,160,202,160,227,186.7C252.6,213,278,267,303,250.7C328.4,235,354,149,379,128C404.2,107,429,149,455,138.7C480,128,505,64,531,85.3C555.8,107,581,213,606,234.7C631.6,256,657,192,682,181.3C707.4,171,733,213,758,202.7C783.2,192,808,128,834,122.7C858.9,117,884,171,909,165.3C934.7,160,960,96,985,85.3C1010.5,75,1036,117,1061,154.7C1086.3,192,1112,224,1137,245.3C1162.1,267,1187,277,1213,261.3C1237.9,245,1263,203,1288,202.7C1313.7,203,1339,245,1364,229.3C1389.5,213,1415,139,1427,101.3L1440,64L1440,320L1427.4,320C1414.7,320,1389,320,1364,320C1338.9,320,1314,320,1288,320C1263.2,320,1238,320,1213,320C1187.4,320,1162,320,1137,320C1111.6,320,1086,320,1061,320C1035.8,320,1011,320,985,320C960,320,935,320,909,320C884.2,320,859,320,834,320C808.4,320,783,320,758,320C732.6,320,707,320,682,320C656.8,320,632,320,606,320C581.1,320,556,320,531,320C505.3,320,480,320,455,320C429.5,320,404,320,379,320C353.7,320,328,320,303,320C277.9,320,253,320,227,320C202.1,320,177,320,152,320C126.3,320,101,320,76,320C50.5,320,25,320,13,320L0,320Z"></path></svg>